name analog
datacolumns 19
datarows 31
range 0.196 0.211
endheader
time	ground_force_vx	ground_force_vy	ground_force_vz	ground_force_px	ground_force_py	ground_force_pz	l_ground_force_vx	l_ground_force_vy	l_ground_force_vz	l_ground_force_px	l_ground_force_py	l_ground_force_pz	ground_torque_x	ground_torque_y	ground_torque_z	l_ground_torque_x	l_ground_torque_y	l_ground_torque_z
0.196	-0.0	-0.0	-0.0	-0.9278682470321656	43.67735290527344	-402.3556518554688	-7.831527233123779	-41.09701919555664	-377.8904724121094	-0.0	-0.0	-0.0	-0.0	-0.0	-0.0	88920.53125	2513.37255859375	-3622.9228515625
0.1965	-0.0	-0.0	-0.0	-0.3531457781791687	40.99305725097656	-393.8523559570313	-8.60494613647461	-39.87173080444336	-375.29443359375	-0.0	-0.0	-0.0	-0.0	-0.0	-0.0	88331.0703125	2519.0185546875	-3664.924072265625
0.197	-0.0	-0.0	-0.0	-0.4853947162628174	39.563385009765625	-386.6487121582031	-9.289714813232422	-39.58201217651367	-369.9045715332031	-0.0	-0.0	-0.0	-0.0	-0.0	-0.0	87645.078125	2098.019287109375	-3758.996826171875
0.1975	-0.0	-0.0	-0.0	-1.1348413228988647	37.53841018676758	-376.843017578125	-10.006980895996094	-38.7872314453125	-366.370849609375	-0.0	-0.0	-0.0	-0.0	-0.0	-0.0	86719.7109375	2108.520263671875	-3889.93310546875
0.198	-0.0	-0.0	-0.0	-1.9626312255859373	35.35551834106445	-368.8533020019531	-10.922079086303713	-38.00305938720703	-359.7798156738281	-0.0	-0.0	-0.0	-0.0	-0.0	-0.0	85219.3671875	1807.3426513671875	-3988.839599609375
0.1985	-0.0	-0.0	-0.0	-3.142624616622925	33.40366744995117	-359.9485778808594	-11.44369125366211	-37.56510162353516	-354.2912292480469	-0.0	-0.0	-0.0	-0.0	-0.0	-0.0	83712.59375	1742.1939697265625	-4081.653564453125
0.199	-0.0	-0.0	-0.0	-4.648919582366943	32.086944580078125	-348.7646484375	-11.567593574523926	-36.66780853271485	-349.0131225585937	-0.0	-0.0	-0.0	-0.0	-0.0	-0.0	82309.96875	1368.693359375	-4081.513916015625
0.1995	-0.0	-0.0	-0.0	-5.729107856750488	30.48259735107422	-339.0730285644531	-11.720080375671388	-35.37194061279297	-340.9263916015625	-0.0	-0.0	-0.0	-0.0	-0.0	-0.0	80582.3125	1199.9154052734375	-3886.761962890625
0.2	-0.0	-0.0	-0.0	-7.1368408203125	30.33880043029785	-328.41876220703125	-11.418965339660645	-33.88076400756836	-331.402099609375	-0.0	-0.0	-0.0	-0.0	-0.0	-0.0	78710.6875	1013.875244140625	-3724.73193359375
0.2005	-0.0	-0.0	-0.0	-8.420087814331055	30.58681869506836	-317.6663513183594	-11.21689510345459	-32.58070755004883	-322.1302795410156	-0.0	-0.0	-0.0	-0.0	-0.0	-0.0	76373.46875	796.5115356445312	-3660.03125
0.201	-0.0	-0.0	-0.0	-9.985798835754396	30.363052368164062	-307.8005065917969	-11.660526275634766	-30.83896827697754	-314.64373779296875	-0.0	-0.0	-0.0	-0.0	-0.0	-0.0	74551.546875	821.5927124023438	-3783.459228515625
0.2015	-0.0	-0.0	-0.0	-11.308516502380373	30.47667121887207	-298.325927734375	-12.040040016174316	-29.489688873291016	-305.9151916503906	-0.0	-0.0	-0.0	-0.0	-0.0	-0.0	72508.640625	840.3704833984375	-3882.296630859375
0.202	-0.0	-0.0	-0.0	-12.766302108764648	30.63007926940918	-289.43731689453125	-12.404563903808594	-27.68404769897461	-297.7883605957031	-0.0	-0.0	-0.0	-0.0	-0.0	-0.0	70561.8984375	627.4584350585938	-3826.07080078125
0.2025	-0.0	-0.0	-0.0	-13.528958320617676	31.34032440185547	-280.74224853515625	-12.611992835998535	-26.447622299194336	-288.4585266113281	-0.0	-0.0	-0.0	-0.0	-0.0	-0.0	68558.328125	607.371826171875	-3802.611328125
0.203	-0.0	-0.0	-0.0	-14.510143280029297	31.275821685791016	-271.5599060058594	-12.63658618927002	-25.3332633972168	-278.8981628417969	-0.0	-0.0	-0.0	-0.0	-0.0	-0.0	66017.921875	661.7984619140625	-3850.284912109375
0.20350000000000001	-0.0	-0.0	-0.0	-14.56391429901123	31.197540283203125	-262.7037353515625	-13.1934175491333	-24.98583030700684	-271.2180480957031	-0.0	-0.0	-0.0	-0.0	-0.0	-0.0	64049.4140625	713.35986328125	-3915.0048828125
0.20400000000000001	-0.0	-0.0	-0.0	-14.476567268371582	31.536357879638672	-256.9839172363281	-14.355788230895996	-24.858028411865234	-260.72003173828125	-0.0	-0.0	-0.0	-0.0	-0.0	-0.0	62222.9609375	662.579345703125	-4131.64892578125
0.20450000000000002	-0.0	-0.0	-0.0	-13.811708450317385	31.28477096557617	-250.0470428466797	-15.928064346313477	-25.878253936767575	-257.0364685058594	-0.0	-0.0	-0.0	-0.0	-0.0	-0.0	60794.80859375	697.0100708007812	-4289.52294921875
0.20500000000000002	-0.0	-0.0	-0.0	-13.332769393920898	30.531360626220703	-243.3076934814453	-17.524805068969727	-27.34878158569336	-253.7372283935547	-0.0	-0.0	-0.0	-0.0	-0.0	-0.0	59612.8984375	465.3507080078125	-4501.64013671875
0.20550000000000002	-0.0	-0.0	-0.0	-12.659643173217772	30.62041473388672	-235.31430053710935	-18.314428329467773	-28.77728271484375	-251.64247131347656	-0.0	-0.0	-0.0	-0.0	-0.0	-0.0	59589.60546875	742.7630615234375	-4653.15966796875
0.20600000000000002	-0.0	-0.0	-0.0	-12.083976745605469	30.10177230834961	-231.91085815429688	-17.782241821289062	-30.110498428344727	-252.9435272216797	-0.0	-0.0	-0.0	-0.0	-0.0	-0.0	59429.9296875	355.15142822265625	-4367.5048828125
0.20650000000000002	-0.0	-0.0	-0.0	-11.702873229980469	30.409748077392575	-228.1859436035156	-16.330162048339844	-31.723249435424805	-254.7560272216797	-0.0	-0.0	-0.0	-0.0	-0.0	-0.0	60234.78125	-71.6587905883789	-3975.5791015625
0.20700000000000002	-0.0	-0.0	-0.0	-11.540274620056152	30.90400505065918	-227.93101501464844	-14.87850284576416	-32.46235656738281	-258.8168334960937	-0.0	-0.0	-0.0	-0.0	-0.0	-0.0	61352.75	-387.02679443359375	-3327.53662109375
0.20750000000000002	-0.0	-0.0	-0.0	-11.63812255859375	31.851449966430664	-225.4247131347656	-11.774319648742676	-33.265289306640625	-264.4031066894531	-0.0	-0.0	-0.0	-0.0	-0.0	-0.0	62541.2890625	-583.9119873046875	-2567.853759765625
0.20800000000000002	-0.0	-0.0	-0.0	-11.508155822753906	32.28939437866211	-225.6163482666016	-9.12104034423828	-34.54988098144531	-270.9735107421875	-0.0	-0.0	-0.0	-0.0	-0.0	-0.0	64435.35546875	-816.29833984375	-1819.36181640625
0.2085	-0.0	-0.0	-0.0	-10.900376319885254	32.5009765625	-226.3222503662109	-6.822799682617188	-35.770286560058594	-279.2574462890625	-0.0	-0.0	-0.0	-0.0	-0.0	-0.0	66026.9453125	-1194.767333984375	-1168.18359375
0.209	-0.0	-0.0	-0.0	-10.049331665039062	32.10374450683594	-224.10716247558597	-4.879093170166016	-36.24365234375	-287.0638427734375	-0.0	-0.0	-0.0	-0.0	-0.0	-0.0	68320.984375	-1519.0224609375	-692.3485107421875
0.2095	-0.0	-0.0	-0.0	-8.629307746887207	30.848751068115234	-222.9901580810547	-3.0730881690979004	-36.71782684326172	-294.5245361328125	-0.0	-0.0	-0.0	-0.0	-0.0	-0.0	70309.2109375	-1745.4647216796875	-184.0085601806641
0.21	-0.0	-0.0	-0.0	-6.779998779296875	29.50216293334961	-218.4950408935547	-1.6449168920516968	-36.95887756347656	-300.45977783203125	-0.0	-0.0	-0.0	-0.0	-0.0	-0.0	71761.125	-1786.4227294921875	197.0908660888672
0.2105	-0.0	-0.0	-0.0	-6.155525207519531	28.58684730529785	-217.62657165527344	-0.3067975640296936	-36.28364562988281	-303.9219970703125	-0.0	-0.0	-0.0	-0.0	-0.0	-0.0	72541.7421875	-1488.5919189453125	429.9612731933594
0.211	-0.0	-0.0	-0.0	-5.249744415283203	27.90464782714844	-215.2496337890625	1.0478219985961914	-35.86587142944336	-308.8760070800781	-0.0	-0.0	-0.0	-0.0	-0.0	-0.0	73453.28125	-1640.2496337890625	617.01904296875
